<?xml version="1.0" encoding="utf-8"?>
<!-- Generator: Adobe Illustrator 19.2.1, SVG Export Plug-In . SVG Version: 6.00 Build 0)  -->
<svg version="1.1" id="Layer_1" xmlns="http://www.w3.org/2000/svg" xmlns:xlink="http://www.w3.org/1999/xlink" x="0px" y="0px"
	 viewBox="0 0 477 35.5" style="enable-background:new 0 0 477 35.5;" xml:space="preserve">
<style type="text/css">
	.st0{fill:#77787B;}
	.st1{fill:#A2D06D;}
	.st2{fill:#58595B;}
	.st3{enable-background:new    ;}
	.st4{fill:#A3D463;}
</style>
<g>
	<g>
		<path class="st0" d="M14.1,1.5v2H4v7.1h7.6v2H4v10.1H1.6V1.5H14.1z M26.3,19.4c-1,1.7-2.4,3.5-5.9,3.5c-3.4,0-6.6-2.3-6.6-7.9
			c0-4.9,2.5-7.9,6.2-7.9c3.2,0,5.8,2.1,5.8,6.9v1.4h-9.9c0,3.3,2,5.7,4.5,5.7c1.9,0,3.3-1,4.2-2.6L26.3,19.4z M23.8,13.7
			c0-2.8-1.3-4.7-3.6-4.7c-2.5,0-3.9,1.9-4.1,4.7H23.8z M41.9,1.5v17.8c0,1.1-0.1,2.2,0.1,3.3h-1.9l-0.3-1.5c-0.7,1-2.2,1.8-4,1.8
			c-2.7,0-6.2-1.8-6.2-7.9c0-5.9,3.5-7.9,6.1-7.9c1.4,0,2.8,0.7,4,1.7l0.1,0.1V1.5H41.9z M39.7,11.1C38.6,9.8,37.1,9,35.9,9
			c-2.5,0-4.3,1.6-4.3,6.2c0,3.9,1.7,6,4.3,6c1.3,0,2.3-0.6,3.8-2V11.1z M58.3,19.4c-1,1.7-2.4,3.5-5.9,3.5c-3.4,0-6.6-2.3-6.6-7.9
			c0-4.9,2.5-7.9,6.2-7.9c3.2,0,5.8,2.1,5.8,6.9v1.4h-9.9c0,3.3,2,5.7,4.5,5.7c1.9,0,3.3-1,4.2-2.6L58.3,19.4z M55.7,13.7
			c0-2.8-1.3-4.7-3.6-4.7c-2.6,0-3.9,1.9-4.1,4.7H55.7z M61.5,7.5h2.1v3h0.1c1.2-2.1,2.4-3.3,4.9-3.3v2.1c-2.6,0.1-4,1.8-5,4.9v8.4
			h-2.1V7.5z M71,10.4c1-1.8,2.8-3.2,5.7-3.2c2.6,0,5.3,1.2,5.3,4.6v7.7c0,1.7,0.1,2.5,0.4,3.3h-2.2L80,20.7c-1.1,1.2-2.8,2.4-5,2.4
			c-2.3,0-4.3-1.4-4.3-4.2c0-3.3,2.5-5,9.3-6.2v-0.8c0-2-1.3-2.8-3.1-2.8c-2.3,0-3.5,1.3-3.9,2.4L71,10.4z M79.9,14.5
			c-4.8,0.9-7.2,2.3-7.2,4.4c0,1.4,1.3,2.3,2.5,2.3c1.5,0,3.5-1.1,4.7-2.5V14.5z M89.3,1.5v21.1h-2.1V1.5H89.3z M106.4,7.2
			c-0.6-1.6-1.9-2.8-3.8-2.8c-1.8,0-3,0.7-3,2.3c0,3.6,10.9,2.9,10.9,9.7c0,4.3-2.7,6.5-7.4,6.5c-3.5,0-6.7-1.9-7.9-5l3.3-1.5
			c1,2,2.2,3.3,4.6,3.3c2,0,3.6-0.8,3.6-2.8c0-4.2-10.9-3.3-10.9-9.8c0-3.8,3.2-5.9,6.8-5.9c3.4,0,6.2,1.7,7.5,4.8L106.4,7.2z
			 M114,7.5v-5h3.6v5h3v2.9h-3V19c0,0.8,0.4,1.1,1.3,1.1c0.6,0,1.1-0.2,1.7-0.3v3c-1,0.1-1.9,0.2-2.9,0.2c-2.7,0-3.7-1.3-3.7-3.5
			v-9.1h-2.1V7.5H114z M136.1,7.5v15.2h-3.3v-1.6c-1.3,0.9-2.9,1.9-4.7,1.9c-3,0-4.5-2-4.5-5.1V7.5h3.6v9.9c0,2.1,0.6,2.7,1.9,2.7
			c1.6,0,2.8-0.9,3.4-1.6v-11H136.1z M152.5,22.7h-3.1l-0.2-1.6c-1.3,1.3-2.5,1.9-4.1,1.9c-4,0-6.1-3.6-6.1-8.3
			c0-3.7,2.2-7.5,6.1-7.5c1.2,0,3,0.7,3.7,1.7h0.1V1.5h3.6V22.7z M148.9,11.4c-0.7-0.7-1.6-1.3-2.8-1.3c-2.2,0-3.4,1.8-3.4,5
			s1.2,5,3.4,5c1.6,0,2.1-0.8,2.8-1.3V11.4z M159,15.7c0.1,3.2,1.5,4.4,3.2,4.4s2.5-0.8,3.4-1.8l2.6,1.6c-1.4,2.2-3.5,3.1-6.4,3.1
			c-4,0-6.4-3.1-6.4-7.9s2.5-7.9,6.6-7.9c4,0,6.2,3.3,6.2,7v1.5C168.2,15.7,159,15.7,159,15.7z M164.9,13.2
			c-0.1-2.1-1.2-3.3-2.9-3.3c-1.8,0-2.9,1.2-2.9,3.3H164.9z M171.4,22.7V7.5h3.3v1.6c1.3-0.9,2.9-1.9,4.7-1.9c3,0,4.5,2,4.5,5.1
			v10.4h-3.6v-9.9c0-2.1-0.6-2.7-1.9-2.7c-1.6,0-2.8,0.9-3.4,1.6v11H171.4z M188.7,7.5v-5h3.6v5h3v2.9h-3V19c0,0.8,0.4,1.1,1.3,1.1
			c0.6,0,1.1-0.2,1.7-0.3v3c-1,0.1-1.9,0.2-2.9,0.2c-2.7,0-3.7-1.3-3.7-3.5v-9.1h-2.1V7.5H188.7z"/>
	</g>
	<g>
		<path class="st1" d="M205.7,1.5h5l6,21.2h-4l-1.2-4.6h-6.7l-1.3,4.6h-4L205.7,1.5z M205.8,14.8h4.9l-2.4-9.2h-0.1L205.8,14.8z
			 M219.4,4.6V1.2h3.6v3.4C223,4.6,219.4,4.6,219.4,4.6z M223,22.7h-3.6V7.5h3.6V22.7z M239.8,22.7h-3.1l-0.2-1.6
			c-1.3,1.3-2.5,1.9-4.1,1.9c-4,0-6.1-3.6-6.1-8.3c0-3.7,2.2-7.5,6.1-7.5c1.2,0,3,0.7,3.7,1.7h0.1V1.5h3.6V22.7z M236.2,11.4
			c-0.7-0.7-1.6-1.3-2.8-1.3c-2.2,0-3.4,1.8-3.4,5s1.2,5,3.4,5c1.6,0,2.1-0.8,2.8-1.3V11.4z"/>
	</g>
	<g>
		<path class="st2" d="M1.2,33.9l2.9-5.4H5l0.5,5.4H4.8l-0.1-1.7h-2l-0.9,1.7H1.2z M2.9,31.7h1.6l-0.2-2.8h0.1L2.9,31.7z M9.3,30
			l-0.1,0.5l0,0c0.4-0.3,0.8-0.6,1.3-0.6c0.6,0,1.1,0.3,0.9,1.1l-0.6,2.8h-0.5l0.6-2.8c0.1-0.5-0.1-0.7-0.5-0.7s-0.9,0.3-1.3,0.6
			l-0.6,2.9H8l0.9-3.9h0.4C9.3,29.9,9.3,30,9.3,30z M19.3,28.4c1.3,0,2.1,1,2.1,2.8c0,1.8-0.8,2.8-2.1,2.8c-1.3,0-2.1-1-2.1-2.8
			S18,28.4,19.3,28.4z M19.3,33.5c1,0,1.5-0.7,1.5-2.3c0-1.5-0.6-2.3-1.5-2.3c-1,0-1.5,0.7-1.5,2.3C17.8,32.7,18.4,33.5,19.3,33.5z
			 M27.3,28.5V29h-2.6v1.8h1.9v0.5h-1.9v2.6h-0.6v-5.4C24.1,28.5,27.3,28.5,27.3,28.5z M33.1,28.5V29h-2.6v1.8h1.9v0.5h-1.9v2.6
			h-0.6v-5.4C29.9,28.5,33.1,28.5,33.1,28.5z M36.4,28.5v5.4h-0.6v-5.4C35.8,28.5,36.4,28.5,36.4,28.5z M43.3,32.3
			c-0.2,1-0.8,1.7-1.9,1.7c-1.2,0-2.1-0.9-2.1-2.8c0-1.8,0.8-2.8,2.1-2.8c1,0,1.6,0.6,1.8,1.6l-0.6,0.2c-0.2-0.8-0.5-1.2-1.4-1.2
			c-0.8,0-1.4,0.7-1.4,2.3c0,1.6,0.6,2.3,1.5,2.3c0.8,0,1.2-0.6,1.3-1.3C42.6,32.3,43.3,32.3,43.3,32.3z M49.2,28.5V29h-2.7v1.8h1.9
			v0.5h-1.9v2.1h2.8v0.5h-3.4v-5.4C45.9,28.5,49.2,28.5,49.2,28.5z M56.1,34c-1.1,0-1.4-0.9-1.1-2c0.2-1.1,1-2,2-2
			c1.1,0,1.4,0.9,1.2,2C57.9,33.1,57.1,34,56.1,34z M56.9,30.4c-0.6,0-1.2,0.6-1.4,1.6s0.1,1.6,0.7,1.6c0.6,0,1.2-0.6,1.4-1.6
			C57.8,31,57.5,30.4,56.9,30.4z M60.4,33.9l0.8-3.4h-0.7l0.1-0.5h0.7l0.1-0.4c0.2-0.9,0.6-1.1,1.2-1.1c0.2,0,0.3,0,0.5,0L63,29
			c-0.1,0-0.3-0.1-0.4-0.1c-0.4,0-0.5,0.1-0.6,0.6l-0.1,0.6h0.8l-0.1,0.5h-0.8L61,34L60.4,33.9L60.4,33.9z M69,30l0.3-1.3h0.5
			L69.5,30h0.9l-0.1,0.5h-0.9l-0.6,2.8c0,0.2,0.1,0.3,0.4,0.3c0.2,0,0.3,0,0.5,0L69.6,34c-0.1,0-0.3,0.1-0.6,0.1
			c-0.6,0-0.8-0.2-0.7-0.6l0.6-2.9h-0.6l0.1-0.5L69,30L69,30z M73.8,28.5l-0.5,2l0,0c0.4-0.3,0.8-0.6,1.3-0.6c0.6,0,1.1,0.3,0.9,1.1
			l-0.6,2.8h-0.5L75,31c0.1-0.5-0.1-0.7-0.5-0.7s-0.9,0.3-1.3,0.6l-0.6,2.9h-0.5l1.2-5.4h0.5C73.8,28.4,73.8,28.5,73.8,28.5z
			 M81,33.1c-0.4,0.4-0.8,0.9-1.7,0.9c-0.9,0-1.6-0.6-1.2-2c0.3-1.3,1.1-2,2-2c0.8,0,1.4,0.5,1.1,1.8l-0.1,0.3h-2.5
			c-0.2,0.9,0.2,1.5,0.8,1.5c0.5,0,0.9-0.3,1.2-0.7L81,33.1z M80.6,31.6c0.2-0.7-0.1-1.2-0.7-1.2c-0.7,0-1.1,0.5-1.3,1.2H80.6z
			 M87.8,28.5v3.8c0,0.6,0.5,1.2,1.3,1.2s1.3-0.5,1.3-1.2v-3.8H91v3.8c0,1.1-0.8,1.7-1.9,1.7s-1.9-0.6-1.9-1.7v-3.8H87.8z M94,33.1
			v0.8h-0.7v-0.8H94z M99.4,29.9c-0.1-0.5-0.6-0.9-1.3-0.9c-0.6,0-1,0.3-1,0.8c0,1.2,3.1,0.9,3.1,2.6c0,0.8-0.4,1.6-1.8,1.6
			c-1.2,0-1.7-0.8-1.9-1.4l0.5-0.2c0.2,0.6,0.6,1.1,1.4,1.1s1.2-0.4,1.2-1c0-1.4-3.1-1-3.1-2.7c0-0.8,0.7-1.4,1.6-1.4
			c0.8,0,1.5,0.4,1.8,1.3L99.4,29.9z M103.3,33.1v0.8h-0.7v-0.8H103.3z M108.7,28.5h1.5c1.5,0,2.4,0.9,2.4,2.7
			c0,1.6-0.9,2.7-2.5,2.7h-1.4V28.5z M109.3,33.4h0.8c1.2,0,1.9-0.7,1.9-2.2c0-1.6-0.8-2.2-1.9-2.2h-0.8V33.4z M118.6,28.5V29h-2.7
			v1.8h1.9v0.5h-1.9v2.1h2.8v0.5h-3.4v-5.4C115.3,28.5,118.6,28.5,118.6,28.5z M121.4,33.9v-5.4h1.9c1.2,0,1.7,0.7,1.7,1.5
			c0,0.9-0.6,1.5-2,1.5h-1v2.4H121.4z M122,31h1c1,0,1.3-0.3,1.3-1c0-0.6-0.4-1-1.2-1h-1.2L122,31L122,31z M126.7,33.9l1.7-5.4h0.9
			l1.7,5.4h-0.6l-0.5-1.7H128l-0.5,1.7H126.7z M128,31.7h1.6l-0.8-2.8h-0.1L128,31.7z M133.6,33.9v-5.4h1.7c1.2,0,1.8,0.5,1.8,1.4
			c0,0.8-0.4,1.2-1.1,1.4l1.2,2.6h-0.7l-1.1-2.5h-1.3v2.5H133.6z M134.2,30.9h1.1c0.8,0,1.3-0.3,1.3-1s-0.5-0.9-1.3-0.9h-1.1V30.9z
			 M141.5,29v4.9h-0.6V29h-1.6v-0.5h3.8V29H141.5z M149.7,33.9v-5l0,0l-1.5,5h-0.5l-1.5-5l0,0v5h-0.5v-5.4h0.9l1.4,4.4l0,0l1.4-4.4
			h0.9v5.4H149.7z M156.7,28.5V29H154v1.8h1.9v0.5H154v2.1h2.8v0.5h-3.4v-5.4C153.4,28.5,156.7,28.5,156.7,28.5z M159.6,33.9v-5.4
			h0.9l2.4,4.2l0,0v-4.2h0.5v5.4h-0.5l-2.8-4.8l0,0v4.8H159.6z M168.1,29v4.9h-0.6V29h-1.6v-0.5h3.8V29H168.1z M175.6,34
			c-1.1,0-1.4-0.9-1.1-2c0.2-1.1,1-2,2-2c1.1,0,1.4,0.9,1.2,2C177.4,33.1,176.7,34,175.6,34z M176.4,30.4c-0.6,0-1.2,0.6-1.4,1.6
			s0.1,1.6,0.7,1.6c0.6,0,1.2-0.6,1.4-1.6C177.4,31,177.1,30.4,176.4,30.4z M179.9,33.9l0.8-3.4H180l0.1-0.5h0.7l0.1-0.4
			c0.2-0.9,0.6-1.1,1.2-1.1c0.2,0,0.3,0,0.5,0l-0.1,0.5c-0.1,0-0.3-0.1-0.4-0.1c-0.4,0-0.5,0.1-0.6,0.6l-0.1,0.6h0.8l-0.1,0.5h-0.8
			l-0.8,3.4L179.9,33.9L179.9,33.9z M191.3,28.5V29h-2.7v1.8h1.9v0.5h-1.9v2.1h2.8v0.5h-3.3v-5.4C188.1,28.5,191.3,28.5,191.3,28.5z
			 M194.1,28.5h1.5c1.5,0,2.5,0.9,2.5,2.7c0,1.6-0.9,2.7-2.5,2.7h-1.5V28.5z M194.7,33.4h0.8c1.2,0,1.9-0.7,1.9-2.2
			c0-1.6-0.8-2.2-1.9-2.2h-0.8V33.4z M201.3,28.5v3.8c0,0.6,0.4,1.2,1.3,1.2c0.8,0,1.3-0.5,1.3-1.2v-3.8h0.6v3.8
			c0,1.1-0.8,1.7-1.9,1.7c-1.1,0-1.9-0.6-1.9-1.7v-3.8H201.3z M211.2,32.3c-0.2,1-0.8,1.7-1.9,1.7c-1.2,0-2.1-0.9-2.1-2.8
			c0-1.8,0.8-2.8,2.1-2.8c1,0,1.6,0.6,1.8,1.6l-0.6,0.2c-0.2-0.8-0.5-1.2-1.4-1.2c-0.8,0-1.4,0.7-1.4,2.3c0,1.6,0.6,2.3,1.5,2.3
			c0.8,0,1.2-0.6,1.3-1.3C210.5,32.3,211.2,32.3,211.2,32.3z M213.2,33.9l1.7-5.4h0.9l1.7,5.4h-0.6l-0.5-1.7h-1.9l-0.5,1.7H213.2z
			 M214.5,31.7h1.6l-0.8-2.8h-0.1L214.5,31.7z M221.3,29v4.9h-0.6V29h-1.6v-0.5h3.8V29H221.3z M226.2,28.5v5.4h-0.6v-5.4
			C225.6,28.5,226.2,28.5,226.2,28.5z M231.2,28.4c1.3,0,2.1,1,2.1,2.8c0,1.8-0.8,2.8-2.1,2.8s-2.1-1-2.1-2.8S229.8,28.4,231.2,28.4
			z M231.2,33.5c1,0,1.5-0.7,1.5-2.3c0-1.5-0.6-2.3-1.5-2.3c-1,0-1.5,0.7-1.5,2.3C229.7,32.7,230.2,33.5,231.2,33.5z M236,33.9v-5.4
			h0.9l2.4,4.2l0,0v-4.2h0.5v5.4h-0.5l-2.8-4.8l0,0v4.8H236z"/>
	</g>
</g>
<g>
	<rect x="257.8" y="1.3" class="st2" width="0.5" height="34.2"/>
</g>
<g class="st3">
	<path class="st0" d="M276.1,17.4l2.6-0.9c0,0,0,0.1,0.1,0.2c0,0.1,0.1,0.3,0.1,0.5s0.2,0.5,0.3,0.7c0.1,0.3,0.3,0.5,0.5,0.8
		s0.5,0.5,0.8,0.7c0.7,0.5,1.6,0.7,2.6,0.7s1.8-0.3,2.3-0.8s0.7-1.1,0.7-1.8s-0.1-1.3-0.2-1.7c-0.1-0.4-0.4-0.8-0.8-1.1
		c-0.6-0.5-1.6-1-3.1-1.5c-2.6-0.8-4.3-1.9-5-3.6c-0.4-0.8-0.6-1.8-0.6-3c0-1,0.3-1.9,1-2.8c1.2-1.5,2.9-2.3,5-2.3
		c1.7,0,3.1,0.5,4.2,1.6c0.8,0.7,1.4,1.6,1.8,2.8l0.3,0.7c0.1,0.2,0.1,0.4,0.2,0.4l-2.6,0.9c-0.6-1.9-1.5-3.1-2.8-3.5
		c-0.3-0.1-0.6-0.2-1-0.2c-1.9,0-2.8,1-2.8,2.9c0,0.9,0.3,1.6,0.8,2c0.4,0.4,1,0.7,1.7,1l0.6,0.2c0.4,0.1,0.6,0.2,0.6,0.2L284,11
		c1.5,0.5,2.6,1,3.1,1.4c0.8,0.6,1.3,1.2,1.6,1.7c0.5,1.1,0.7,2.2,0.7,3.3c0,0.9-0.3,1.9-0.8,2.8c-0.7,1.3-1.8,2.1-3.3,2.5
		c-0.6,0.2-1.2,0.2-1.9,0.2s-1.3-0.1-2-0.2s-1.1-0.3-1.6-0.5c-0.4-0.2-0.8-0.5-1.2-0.7s-0.7-0.6-0.9-0.9s-0.5-0.6-0.7-0.9
		s-0.3-0.6-0.5-0.9s-0.2-0.5-0.3-0.7c-0.1-0.2-0.1-0.4-0.2-0.5C276.1,17.5,276.1,17.4,276.1,17.4z"/>
	<path class="st0" d="M289.9,10.9V8.4h2.1V3.2h2.9v5.2h3v2.4h-3v7.6c0,0.8,0.1,1.3,0.4,1.6c0.3,0.3,0.7,0.4,1.4,0.4
		c0.3,0,0.5,0,0.8-0.1c0.3,0,0.4-0.1,0.4-0.1v2c-0.5,0.2-0.9,0.4-1.1,0.4c-0.3,0.1-0.6,0.1-1,0.1s-0.7,0-0.9,0c-0.2,0-0.4,0-0.7-0.1
		c-0.3-0.1-0.5-0.1-0.7-0.2s-0.4-0.2-0.6-0.4s-0.4-0.4-0.5-0.6c-0.3-0.6-0.4-1.3-0.4-2.2v-8.5h-2.1V10.9z"/>
	<path class="st0" d="M299.5,19.1V8.4h2.9v9.9c0,0.6,0.2,1.2,0.6,1.5s0.9,0.6,1.4,0.6s1.1-0.2,1.6-0.5s0.9-0.6,1.2-1V8.4h2.9v14.2
		h-2.9v-1.5c-1.2,1.2-2.4,1.8-3.6,1.8c-1.1,0-2.1-0.3-2.8-0.9C300,21.4,299.5,20.4,299.5,19.1z"/>
	<path class="st0" d="M323.9,20.7c0,0.6,0.1,1.3,0.4,1.9h-3.1c0,0-0.1-0.1-0.1-0.2l-0.1-0.9c-0.7,0.9-1.7,1.3-3,1.3
		c-2.3,0-3.9-1-4.9-3.1c-0.6-1.2-0.9-2.5-0.9-4c0-3.4,0.8-5.7,2.5-6.8c0.9-0.6,2.1-0.9,3.5-0.9c0.7,0,1.3,0.1,1.8,0.4s0.8,0.5,1,0.8
		v-7h2.9L323.9,20.7L323.9,20.7z M321,12c-0.9-0.9-1.9-1.4-2.9-1.4c-1.1,0-1.9,0.5-2.4,1.4c-0.4,0.8-0.6,2.1-0.6,3.7
		c0,1.8,0.3,3.1,0.9,3.8c0.5,0.6,1.3,0.9,2.2,0.9c1,0,1.9-0.5,2.6-1.4c0.1-0.2,0.2-0.2,0.2-0.3L321,12L321,12z"/>
	<path class="st0" d="M326.4,19.9c-0.3-0.6-0.5-1.3-0.6-1.9s-0.2-1.5-0.2-2.5s0.1-2,0.4-2.9s0.5-1.7,0.9-2.2s0.8-1,1.3-1.3
		c0.9-0.6,1.9-0.9,3.1-0.9c1.1,0,2.1,0.3,3,1c1.6,1.3,2.3,3.7,2.3,7.1h-8.1c0,1.8,0.5,3,1.4,3.7c0.5,0.3,1,0.5,1.6,0.5
		c0.5,0,1-0.1,1.4-0.2s0.6-0.3,0.9-0.5s0.4-0.4,0.6-0.6c0.2-0.3,0.4-0.6,0.5-0.8l1.8,1.2c-0.7,1.2-1.4,2-2.1,2.5
		c-0.8,0.6-1.8,0.8-2.8,0.8s-1.9-0.1-2.6-0.4s-1.3-0.6-1.7-1C327,21,326.7,20.5,326.4,19.9z M328.7,13.9h5c0-0.7-0.1-1.3-0.4-1.8
		c-0.5-0.9-1.1-1.4-1.9-1.4c-0.5,0-0.9,0.1-1.3,0.3s-0.7,0.5-0.8,0.9C328.8,12.5,328.7,13.1,328.7,13.9z"/>
	<path class="st0" d="M349.5,12v10.7h-2.9v-9.9c0-0.6-0.2-1.2-0.6-1.5c-0.4-0.4-0.9-0.6-1.4-0.6s-1.1,0.2-1.6,0.5s-0.9,0.6-1.2,1
		v10.6H339V8.4h2.9v1.5c0.5-0.5,1.1-0.9,1.6-1.3c0.6-0.3,1.2-0.5,2-0.5c1.2,0,2.1,0.3,2.9,1S349.5,10.7,349.5,12z"/>
	<path class="st0" d="M351,10.9V8.4h2.1V3.2h2.9v5.2h3v2.4h-3v7.6c0,0.8,0.1,1.3,0.4,1.6c0.3,0.3,0.7,0.4,1.4,0.4
		c0.3,0,0.5,0,0.8-0.1c0.3,0,0.4-0.1,0.4-0.1v2c-0.5,0.2-0.9,0.4-1.1,0.4c-0.3,0.1-0.6,0.1-1,0.1s-0.7,0-0.9,0c-0.2,0-0.4,0-0.7-0.1
		c-0.3-0.1-0.5-0.1-0.7-0.2s-0.4-0.2-0.6-0.4s-0.4-0.4-0.5-0.6c-0.3-0.6-0.4-1.3-0.4-2.2v-8.5H351V10.9z"/>
</g>
<g class="st3">
	<path class="st2" d="M362.8,22.7V2.2h3.2v17.4h8.5v3.1H362.8z"/>
	<path class="st2" d="M375.7,15.5c0-2.3,0.5-4,1.6-5.4c1-1.3,2.5-2,4.3-2c1.2,0,2.3,0.3,3.1,0.9c1.8,1.3,2.7,3.4,2.7,6.5
		c0,3.8-1.2,6.1-3.6,7c-0.7,0.2-1.4,0.4-2.2,0.4s-1.6-0.1-2.3-0.4c-0.7-0.2-1.2-0.6-1.7-1c-0.4-0.4-0.8-1-1.1-1.6
		C376,18.8,375.7,17.3,375.7,15.5z M378.7,13.9c-0.1,0.5-0.1,1-0.1,1.5s0,1,0.1,1.5c0.1,0.4,0.2,0.9,0.3,1.3
		c0.1,0.4,0.3,0.8,0.5,1.1c0.5,0.7,1.2,1.1,2.1,1.1c2,0,2.9-1.6,2.9-4.9c0-1.9-0.3-3.3-0.9-4c-0.5-0.6-1.2-0.9-2.1-0.9
		C379.9,10.6,378.9,11.7,378.7,13.9z"/>
	<path class="st2" d="M397.2,22.7c-0.3-0.2-0.4-0.6-0.4-1.3l-0.3,0.3c-0.8,0.8-1.9,1.2-3.3,1.2c-1.7,0-2.9-0.6-3.6-1.8
		c-0.3-0.6-0.5-1.3-0.5-2.1c0-0.8,0.1-1.5,0.4-2.1s0.7-1.2,1.4-1.7c1.2-0.9,3.1-1.6,5.9-2.1c0-0.6,0-1-0.1-1.2
		c0-0.1-0.1-0.3-0.1-0.4s-0.1-0.2-0.2-0.3s-0.2-0.1-0.3-0.2c-0.1-0.1-0.2-0.1-0.4-0.2c-0.4-0.1-0.7-0.1-1.2-0.1
		c-0.4,0-0.8,0.1-1.2,0.2c-0.4,0.1-0.7,0.3-0.9,0.4c-0.2,0.2-0.4,0.4-0.6,0.6c-0.2,0.3-0.4,0.5-0.5,0.8l-1.9-1.2
		c0.4-0.8,0.7-1.4,1-1.6s0.6-0.5,0.9-0.7s0.6-0.4,0.9-0.5c0.8-0.3,1.5-0.4,2.3-0.4s1.4,0,1.9,0.1s0.9,0.2,1.3,0.5
		c0.4,0.2,0.8,0.5,1,0.9c0.6,0.8,0.9,2,0.9,3.5v7.5c0,0.3,0,0.6,0.1,1.1s0.2,0.8,0.3,0.9h-2.8V22.7z M392,19c0,0.5,0.1,0.9,0.4,1.2
		c0.3,0.2,0.6,0.4,1,0.4s0.7,0,0.9-0.1s0.4-0.1,0.6-0.2l0.5-0.3c0.1-0.1,0.3-0.2,0.5-0.3l0.4-0.3c0.1-0.1,0.2-0.2,0.4-0.3l0.2-0.2
		v-3.3c-2,0.5-3.3,1-4,1.5C392.3,17.4,392,18.1,392,19z"/>
	<path class="st2" d="M412.9,12v10.7H410v-9.9c0-0.6-0.2-1.2-0.6-1.5c-0.4-0.4-0.9-0.6-1.4-0.6s-1.1,0.2-1.6,0.5s-0.9,0.6-1.2,1
		v10.6h-2.9V8.4h2.9v1.5c0.5-0.5,1.1-0.9,1.6-1.3c0.6-0.3,1.2-0.5,2-0.5c1.2,0,2.1,0.3,2.9,1S412.9,10.7,412.9,12z"/>
	<path class="st2" d="M415.1,19.8l2-1.2c0.3,0.5,0.6,0.8,0.9,1.1c0.6,0.6,1.4,0.9,2.4,0.9c0.8,0,1.3-0.2,1.7-0.5
		c0.3-0.3,0.5-0.7,0.5-1.4c0-0.7-0.2-1.2-0.7-1.5c-0.4-0.3-0.8-0.5-1.2-0.6l-1.3-0.4c-1.5-0.4-2.5-1-3.2-1.7s-1-1.7-1-2.8
		c0-1,0.4-1.8,1.2-2.5c0.9-0.7,2.1-1.1,3.7-1.1c1.4,0,2.7,0.5,3.7,1.5c0.5,0.4,0.7,0.8,0.9,1.1L423,12c-0.6-0.8-1.3-1.2-1.9-1.4
		c-0.3-0.1-0.7-0.1-1.3-0.1c-0.5,0-1,0.1-1.4,0.4c-0.4,0.3-0.6,0.7-0.6,1.2c0,0.6,0.3,1.1,0.8,1.4c0.5,0.3,0.9,0.5,1.4,0.7l1.2,0.3
		c1.9,0.5,3.1,1.5,3.6,2.7c0.2,0.5,0.3,1.1,0.3,1.9s-0.2,1.4-0.7,2c-0.4,0.6-1,1.1-1.8,1.4s-1.5,0.5-2.2,0.5s-1.4,0-1.8-0.1
		c-0.5-0.1-0.9-0.2-1.4-0.5C416.5,21.8,415.8,21,415.1,19.8z"/>
</g>
<g class="st3">
	<path class="st4" d="M427.6,22.7v-3.3h3.3v3.3H427.6z"/>
	<path class="st4" d="M442.2,17.1c-0.5,0.5-1.1,0.9-1.8,1.1c-0.7,0.3-1.4,0.4-2.1,0.4s-1.3-0.1-1.8-0.3c-0.1,0.1-0.2,0.2-0.4,0.3
		c-0.4,0.3-0.6,0.6-0.6,0.9c0,0.4,0.7,0.7,2,0.9c0.3,0,0.4,0.1,0.5,0.1s0.2,0,0.5,0s0.5,0,0.6,0s0.4,0,0.7,0.1
		c0.3,0,0.6,0.1,0.9,0.1c1.5,0.4,2.5,0.7,3,1.1c0.9,0.8,1.3,1.8,1.3,2.9c0,2.6-2.2,3.9-6.6,3.9c-1.8,0-3.4-0.3-4.6-0.9
		c-1.3-0.6-1.9-1.6-1.9-3c0-1.2,0.9-2.1,2.6-2.8c-0.5-0.1-1-0.3-1.4-0.7c-0.4-0.4-0.6-0.9-0.6-1.4c0-1.2,0.7-2,2.1-2.6
		c-0.5-0.2-0.9-0.8-1.3-1.6c-0.4-0.8-0.6-1.7-0.6-2.6s0.3-1.8,0.8-2.5c0.5-0.8,1.2-1.4,2.1-1.8c0.9-0.4,1.9-0.6,3-0.6
		c0.5,0,1,0.1,1.6,0.3c0.5,0.2,0.9,0.4,1.1,0.6c0.8-0.6,1.6-0.9,2.5-0.9c0.1,0,0.3,0,0.6,0c0.3,0,0.5,0,0.6,0v2.4h-0.1
		c-0.9-0.1-1.5-0.1-1.8,0.1c-0.1,0-0.1,0.1-0.1,0.1s0.1,0.2,0.2,0.5s0.2,0.5,0.2,0.6c0.2,0.5,0.2,1.1,0.2,1.7s-0.1,1.2-0.4,1.9
		C443,16.1,442.7,16.7,442.2,17.1z M435.2,23.7c-0.2,0.2-0.3,0.4-0.4,0.6s-0.1,0.4-0.1,0.6s0,0.4,0.1,0.5s0.2,0.3,0.3,0.4
		c0.1,0.1,0.3,0.2,0.5,0.2c0.2,0.1,0.4,0.1,0.6,0.2s0.4,0.1,0.6,0.1c0.4,0,0.7,0,1.2,0c0.4,0,0.7,0,0.9,0c0.2,0,0.4,0,0.7,0
		c0.3,0,0.6,0,0.8-0.1c0.2,0,0.4-0.1,0.6-0.2s0.4-0.2,0.5-0.3c0.3-0.3,0.5-0.6,0.5-0.9s-0.2-0.7-0.5-0.9c-0.3-0.2-0.7-0.4-1.2-0.5
		s-0.9-0.2-1.4-0.3c-0.5-0.1-0.9-0.1-1.3-0.1s-0.7-0.1-0.8-0.1C436,23.2,435.4,23.5,435.2,23.7z M438.4,10.6c-0.8,0-1.5,0.2-2,0.7
		s-0.8,1.1-0.8,2s0.2,1.6,0.7,2.1c0.5,0.5,1.1,0.8,2.1,0.8c1.2,0,1.9-0.6,2.3-1.9c0.1-0.3,0.1-0.6,0.1-1c0-0.3,0-0.6-0.1-0.9
		c-0.1-0.3-0.2-0.6-0.4-0.9C439.8,10.9,439.2,10.6,438.4,10.6z"/>
	<path class="st4" d="M445.9,15.5c0-2.3,0.5-4,1.6-5.4c1-1.3,2.5-2,4.3-2c1.2,0,2.3,0.3,3.1,0.9c1.8,1.3,2.7,3.4,2.7,6.5
		c0,3.8-1.2,6.1-3.6,7c-0.7,0.2-1.4,0.4-2.2,0.4s-1.6-0.1-2.3-0.4c-0.7-0.2-1.2-0.6-1.7-1c-0.4-0.4-0.8-1-1.1-1.6
		C446.2,18.8,445.9,17.3,445.9,15.5z M448.8,13.9c-0.1,0.5-0.1,1-0.1,1.5s0,1,0.1,1.5c0.1,0.4,0.2,0.9,0.3,1.3
		c0.1,0.4,0.3,0.8,0.5,1.1c0.5,0.7,1.2,1.1,2.1,1.1c2,0,2.9-1.6,2.9-4.9c0-1.9-0.3-3.3-0.9-4c-0.5-0.6-1.2-0.9-2.1-0.9
		C450.1,10.6,449.1,11.7,448.8,13.9z"/>
	<path class="st4" d="M458.2,8.4h3.1l2.9,10l3-10h3.1l-4.4,14.2h-3.3L458.2,8.4z"/>
</g>
</svg>
